<svg width="58" height="108" viewBox="0 0 58 108" fill="none" xmlns="http://www.w3.org/2000/svg">
<circle cx="28.524" cy="55.1251" r="28.524" fill="#433BFF"/>
<path fill-rule="evenodd" clip-rule="evenodd" d="M27.4965 89.9528C30.8842 81.3201 34.1163 68.9938 36.3257 55.0443C38.5351 41.0947 39.2702 28.3729 38.716 19.1159C38.4372 14.4582 37.8421 10.8715 37.0455 8.49296C36.6277 7.24571 35.2056 7.02047 34.4229 8.07759C32.9302 10.0936 31.256 13.3208 29.5515 17.6643C26.1638 26.297 22.9317 38.6234 20.7223 52.5729C18.5129 66.5224 17.7778 79.2443 18.332 88.5013C18.6108 93.159 19.2059 96.7456 20.0025 99.1242C20.4203 100.371 21.8424 100.597 22.6251 99.5396C24.1178 97.5236 25.792 94.2964 27.4965 89.9528ZM20.6623 101.494C20.6623 101.494 20.6653 101.492 20.6712 101.491C20.6652 101.493 20.6623 101.494 20.6623 101.494ZM21.2579 101.584C21.263 101.587 21.2655 101.589 21.2655 101.589C21.2655 101.589 21.2629 101.588 21.2579 101.584ZM36.3857 6.12354C36.3857 6.12354 36.3827 6.12486 36.3768 6.12657C36.3828 6.12423 36.3857 6.12354 36.3857 6.12354ZM35.7901 6.03365C35.785 6.03021 35.7825 6.028 35.7825 6.028C35.7825 6.028 35.7851 6.02957 35.7901 6.03365ZM20.4235 104.953C26.6473 105.939 40.7258 85.3461 45.1996 57.0998C49.6733 28.8535 42.8482 3.64986 36.6245 2.66411C30.4007 1.67836 16.1028 23.3681 11.629 51.6144C7.15525 79.8608 14.1997 103.967 20.4235 104.953Z" fill="#433BFF"/>
<mask id="mask0_2_254" style="mask-type:alpha" maskUnits="userSpaceOnUse" x="0" y="26" width="58" height="58">
<circle cx="28.524" cy="55.1251" r="28.524" fill="#433BFF"/>
</mask>
<g mask="url(#mask0_2_254)">
<path fill-rule="evenodd" clip-rule="evenodd" d="M27.4965 89.9528C30.8842 81.3201 34.1163 68.9938 36.3257 55.0443C38.5351 41.0947 39.2702 28.3729 38.716 19.1159C38.4372 14.4582 37.8421 10.8715 37.0455 8.49296C36.6277 7.24571 35.2056 7.02047 34.4229 8.07759C32.9302 10.0936 31.256 13.3208 29.5515 17.6643C26.1638 26.297 22.9317 38.6234 20.7223 52.5729C18.5129 66.5224 17.7778 79.2443 18.332 88.5013C18.6108 93.159 19.2059 96.7456 20.0025 99.1242C20.4203 100.371 21.8424 100.597 22.6251 99.5396C24.1178 97.5236 25.792 94.2964 27.4965 89.9528ZM20.6623 101.494C20.6623 101.494 20.6653 101.492 20.6712 101.491C20.6652 101.493 20.6623 101.494 20.6623 101.494ZM21.2579 101.584C21.263 101.587 21.2655 101.589 21.2655 101.589C21.2655 101.589 21.2629 101.588 21.2579 101.584ZM36.3857 6.12354C36.3857 6.12354 36.3827 6.12486 36.3768 6.12657C36.3828 6.12423 36.3857 6.12354 36.3857 6.12354ZM35.7901 6.03365C35.785 6.03021 35.7825 6.028 35.7825 6.028C35.7825 6.028 35.7851 6.02957 35.7901 6.03365ZM20.4235 104.953C26.6473 105.939 40.7258 85.3461 45.1996 57.0998C49.6733 28.8535 42.8482 3.64986 36.6245 2.66411C30.4007 1.67836 16.1028 23.3681 11.629 51.6144C7.15525 79.8608 14.1997 103.967 20.4235 104.953Z" fill="#B28FE1"/>
</g>
</svg>
